<?xml version="1.0" standalone="no"?>
<!DOCTYPE svg PUBLIC "-//W3C//DTD SVG 20010904//EN"
 "http://www.w3.org/TR/2001/REC-SVG-20010904/DTD/svg10.dtd">
<svg version="1.0" xmlns="http://www.w3.org/2000/svg"
 width="1280.000000pt" height="426.000000pt" viewBox="0 0 1280.000000 426.000000"
 preserveAspectRatio="xMidYMid meet">
<g transform="translate(0.000000,426.000000) scale(0.100000,-0.100000)"
fill="#000000" stroke="none">
<path d="M4725 3780 c-197 -103 -569 -278 -923 -435 -85 -38 -156 -74 -159
-81 -5 -13 174 -654 187 -668 5 -4 30 -1 57 8 80 26 227 56 236 47 10 -10 32
-840 43 -1568 l7 -493 452 0 453 0 6 213 c3 116 8 471 11 787 5 522 22 1258
44 1930 6 164 5 259 -1 267 -14 17 -173 103 -190 103 -7 -1 -107 -50 -223
-110z"/>
<path d="M6040 3830 c-175 -17 -458 -82 -475 -110 -8 -13 -100 -1079 -93
-1085 3 -4 39 4 79 17 110 34 253 33 330 -3 105 -49 176 -133 205 -241 18 -68
18 -219 0 -329 -45 -275 -162 -556 -454 -1083 l-110 -198 20 -47 c10 -25 31
-71 46 -101 l27 -55 663 -3 662 -2 10 22 c5 13 25 86 45 163 20 77 54 202 77
278 22 76 38 140 36 142 -2 2 -58 -3 -123 -11 -66 -8 -238 -17 -382 -21 -237
-5 -263 -4 -269 10 -4 12 19 47 72 113 450 549 706 983 801 1359 25 99 28 126
27 275 -1 137 -4 179 -23 245 -94 345 -366 585 -740 650 -109 19 -311 26 -431
15z"/>
<path d="M7997 3825 c-197 -25 -463 -91 -472 -118 -5 -15 -75 -929 -75 -981 0
-35 2 -38 23 -33 245 59 428 74 536 41 64 -19 127 -73 154 -134 32 -71 28
-188 -7 -267 -45 -100 -148 -178 -258 -198 -26 -5 -38 -13 -38 -24 0 -23 68
-370 74 -380 3 -5 50 -10 103 -13 123 -6 201 -37 267 -108 60 -64 78 -109 79
-195 1 -130 -74 -237 -199 -285 -53 -20 -71 -22 -179 -17 -84 4 -151 13 -223
32 -57 15 -106 25 -108 22 -2 -2 20 -105 50 -228 30 -123 60 -250 67 -283 7
-32 19 -64 26 -71 24 -25 364 -41 534 -25 155 14 255 41 378 101 87 43 118 65
186 133 67 66 90 97 123 166 56 120 67 173 66 330 0 120 -3 144 -28 214 -33
96 -64 150 -123 216 -49 54 -141 124 -210 159 -24 12 -43 26 -43 31 0 5 51 42
113 83 331 220 457 415 496 770 39 345 -27 575 -218 767 -145 146 -312 235
-536 285 -98 23 -417 28 -558 10z"/>
<path d="M2196 3809 c-376 -52 -670 -271 -850 -636 -160 -321 -220 -802 -160
-1273 78 -612 413 -1143 819 -1301 124 -49 211 -62 365 -57 117 4 146 9 221
35 219 76 394 223 561 472 170 254 276 538 325 870 24 162 24 541 -1 706 -59
405 -194 697 -423 915 -134 128 -264 201 -438 245 -114 29 -304 40 -419 24z
m235 -1441 c85 -25 163 -129 194 -259 8 -35 20 -119 26 -187 35 -404 -135
-788 -337 -757 -90 13 -169 103 -224 253 -49 135 -63 241 -57 432 10 296 71
452 202 511 46 21 139 25 196 7z"/>
<path d="M10453 3764 c-3 -9 -1 -152 6 -318 7 -165 13 -339 14 -386 l2 -85
-270 -5 -270 -5 -7 -202 c-10 -316 -39 -475 -144 -789 -83 -251 -136 -370
-305 -685 -49 -91 -89 -169 -89 -172 0 -4 251 -7 559 -7 439 0 561 -3 569 -13
6 -7 14 -113 19 -257 l8 -245 425 0 425 0 3 244 c1 160 6 249 13 258 9 10 48
13 154 13 l143 0 12 53 c6 28 34 136 61 238 27 102 49 193 49 201 0 15 -5 15
-47 1 -31 -10 -107 -17 -209 -20 -135 -5 -162 -3 -166 9 -4 8 -2 113 3 234 4
120 15 417 24 659 8 242 22 626 31 853 9 227 13 419 10 427 -5 13 -74 15 -511
15 -457 0 -506 -2 -512 -16z m72 -1821 c6 -288 5 -347 -6 -354 -8 -5 -85 -9
-172 -9 -129 0 -159 3 -163 15 -3 8 17 55 45 104 61 109 125 250 198 436 67
170 73 182 83 165 4 -7 11 -168 15 -357z"/>
</g>
</svg>
